<?xml version="1.0" standalone="no"?>
<!DOCTYPE svg PUBLIC "-//W3C//DTD SVG 20010904//EN"
 "http://www.w3.org/TR/2001/REC-SVG-20010904/DTD/svg10.dtd">
<svg version="1.0" xmlns="http://www.w3.org/2000/svg"
 width="512.000000pt" height="512.000000pt" viewBox="0 0 512.000000 512.000000"
 preserveAspectRatio="xMidYMid meet">

<g transform="translate(0.000000,512.000000) scale(0.100000,-0.100000)"
fill="currentColor" stroke="none">
<path d="M2325 4949 c-254 -24 -579 -117 -819 -234 -232 -113 -504 -310 -672
-487 -626 -659 -832 -1574 -548 -2427 239 -718 797 -1276 1514 -1515 1022
-340 2128 31 2738 917 560 814 560 1900 0 2714 -497 722 -1337 1114 -2213
1032z m368 -936 c48 -27 96 -79 120 -133 8 -17 14 -182 17 -535 l5 -510 510
-5 c353 -3 518 -9 535 -17 177 -81 222 -310 88 -445 -76 -75 -54 -72 -623 -78
l-510 -5 -5 -510 c-5 -479 -6 -512 -24 -549 -104 -208 -401 -200 -499 14 -8
17 -14 182 -17 535 l-5 510 -510 5 c-353 3 -518 9 -535 17 -55 25 -107 72
-135 124 -25 46 -29 65 -29 129 0 64 4 83 29 129 28 52 80 99 135 124 17 8
182 14 535 17 l510 5 5 510 c3 281 9 519 14 530 37 81 112 146 189 166 56 14
145 1 200 -28z"/>
</g>
</svg>
