<?xml version="1.0" standalone="no"?>
<!DOCTYPE svg PUBLIC "-//W3C//DTD SVG 20010904//EN"
 "http://www.w3.org/TR/2001/REC-SVG-20010904/DTD/svg10.dtd">
<svg version="1.0" xmlns="http://www.w3.org/2000/svg"
 width="50.000000pt" height="50.000000pt" viewBox="0 0 50.000000 50.000000"
 preserveAspectRatio="xMidYMid meet">

<g transform="translate(0.000000,50.000000) scale(0.100000,-0.100000)"
fill="#000000" stroke="none">
<path d="M192 471 c-52 -14 -109 -57 -138 -107 -56 -95 -28 -232 58 -294 130
-95 310 -36 354 116 40 140 -51 273 -196 288 -25 3 -60 1 -78 -3z m136 -27
c106 -44 160 -168 117 -271 -9 -21 -23 -45 -31 -54 -14 -16 -20 -16 -57 -3
-75 26 -75 25 -33 43 l39 17 -2 79 c-3 107 -18 141 -70 155 -99 26 -141 -26
-152 -189 -4 -46 -2 -48 51 -68 23 -9 22 -11 -30 -30 -64 -24 -73 -20 -101 42
-77 168 99 350 269 279z"/>
</g>
</svg>
