<?xml version="1.0" standalone="no"?>
<!DOCTYPE svg PUBLIC "-//W3C//DTD SVG 20010904//EN"
 "http://www.w3.org/TR/2001/REC-SVG-20010904/DTD/svg10.dtd">
<svg version="1.0" xmlns="http://www.w3.org/2000/svg"
 width="50.000000pt" height="50.000000pt" viewBox="0 0 50.000000 50.000000"
 preserveAspectRatio="xMidYMid meet">

<g transform="translate(0.000000,50.000000) scale(0.100000,-0.100000)"
fill="#000000" stroke="none">
<path d="M205 451 c-15 -7 -7 -10 34 -10 105 -2 186 -67 198 -160 3 -23 10
-41 15 -41 23 0 -14 112 -51 154 -39 44 -151 77 -196 57z"/>
<path d="M92 434 c-24 -16 -29 -53 -11 -85 9 -17 6 -25 -15 -44 -41 -38 -33
-45 54 -45 87 0 95 7 54 45 -21 19 -24 27 -15 44 17 31 13 58 -11 81 -26 24
-28 24 -56 4z m50 -14 c10 0 7 -44 -7 -87 -5 -17 -1 -25 22 -37 28 -15 27 -15
-37 -15 -64 0 -65 0 -37 15 23 12 27 20 22 37 -21 69 -17 104 11 93 9 -3 20
-6 26 -6z"/>
<path d="M352 224 c-24 -16 -29 -53 -11 -85 9 -17 6 -25 -15 -44 -41 -38 -33
-45 54 -45 87 0 95 7 54 45 -21 19 -24 27 -15 44 17 31 13 58 -11 81 -26 24
-28 24 -56 4z m50 -14 c10 0 7 -44 -7 -87 -5 -17 -1 -25 22 -37 28 -15 27 -15
-37 -15 -64 0 -65 0 -37 15 23 12 27 20 22 37 -21 69 -17 104 11 93 9 -3 20
-6 26 -6z"/>
<path d="M50 207 c0 -24 33 -88 56 -108 44 -39 164 -76 164 -52 0 6 -20 13
-45 15 -65 8 -118 47 -149 110 -14 29 -25 45 -26 35z"/>
</g>
</svg>
