<svg xmlns="http://www.w3.org/2000/svg" viewBox="174.88334830508475 440.02784 421.51371129943504 419.82248" id="svg2" version="1.1" style="max-height: 500px" width="421.51371129943504" height="419.82248">
  <defs id="defs6">
    <clipPath id="clipPath16" clipPathUnits="userSpaceOnUse">
      <path id="path14" d="M 0,841.89 H 595.276 V 0 H 0 Z"/>
    </clipPath>
  </defs>
  
  <g transform="matrix(1.3333333,0,0,-1.3333333,0,1122.52)" id="g8">
    <g id="g10">
      <g clip-path="url(#clipPath16)" id="g12">
        <g transform="translate(438.5523,639.1713)" id="g18">
          <path id="path20" style="fill:#ffffff;fill-opacity:1;fill-rule:nonzero;stroke:none" d="m 0,0 c -2.889,-4.512 -5.01,-7.824 -7.272,-11.357 2.225,-2.679 4.441,-5.347 7.272,-8.756 z m -94.349,101.218 c 0.422,2.064 0.7,3.423 1.013,4.958 -10.916,-4.151 -21.582,-8.207 -31.561,-12.002 10.824,-1.329 22.297,-2.737 33.963,-4.169 -1.23,2.123 -2.422,4.18 -3.777,6.517 2.966,1.497 5.522,2.787 9.304,4.696 z m 73.632,79.115 c 9.951,-17.263 16.666,-34.956 11.601,-55.18 -0.323,-1.287 0.422,-3.415 1.421,-4.343 2.125,-1.974 4.744,-3.415 7.661,-5.417 0.105,2.028 0.257,3.616 0.258,5.205 0.008,14.143 0.001,28.286 -0.026,42.429 -0.033,17.332 -2.717,19.689 -20.257,17.85 -0.128,-0.013 -0.239,-0.19 -0.658,-0.544 m -129.097,-292.704 c 0.477,-0.144 0.953,-0.288 1.429,-0.433 0.477,1.503 1.003,2.991 1.421,4.51 2.652,9.612 5.008,19.319 8.081,28.794 0.925,2.853 3.822,5.066 5.816,7.572 1.905,-1.873 3.998,-3.592 5.682,-5.645 7.264,-8.857 13.86,-18.338 21.763,-26.57 6.731,-7.012 15.069,-10.883 25.813,-10.475 22.631,0.859 45.316,0.274 67.979,0.328 9.203,0.022 11.993,2.752 12.02,11.841 0.059,19.837 -0.688,39.71 0.319,59.495 0.595,11.686 -3.958,20.33 -11.239,28.151 -2.472,2.655 -2.165,4.002 -0.37,6.59 7.368,10.625 11.66,22.155 11.443,35.441 -0.38,23.164 -0.106,46.339 -0.108,69.509 -10e-4,11.507 -3.435,16.517 -14.512,20.19 -4.166,1.381 -4.143,3.433 -2.49,6.76 1.237,2.489 2.513,5.163 2.84,7.868 2.073,17.166 -2.815,32.595 -12.702,46.464 -1.26,1.768 -4.503,2.904 -6.865,2.97 -11.112,0.309 -22.237,0.155 -33.357,0.126 -1.071,-0.003 -2.141,-0.288 -3.113,-0.428 2.677,-9.65 5.173,-18.941 7.843,-28.182 2.471,-8.557 2.636,-16.6 -1.662,-24.983 -3.378,-6.589 -5.272,-14.015 -7.225,-21.232 -1.313,-4.854 -3.407,-10.61 -1.958,-14.878 3.627,-10.681 8.949,-20.881 17.237,-28.928 3.324,-3.228 2.799,-5.63 -0.228,-8.174 -5.095,-4.281 -10.426,-8.287 -15.408,-12.692 -2.921,-2.581 -6.552,-5.267 -7.808,-8.667 -5.82,-15.738 -10.812,-31.781 -16.429,-47.598 -0.635,-1.789 -3.396,-4.108 -5.079,-4.035 -13.105,0.565 -26.19,1.622 -39.275,2.614 -2.827,0.214 -5.626,0.783 -8.438,1.189 -0.153,-0.384 -0.305,-0.769 -0.457,-1.153 6.107,-4.255 12.327,-8.362 18.242,-12.869 1.491,-1.135 3.2,-3.897 2.787,-5.327 -4.854,-16.797 -10.282,-33.427 -15.158,-50.217 -2.67,-9.195 -4.58,-18.61 -6.834,-27.926 m 33.465,240.276 c -0.514,6.397 0.209,10.998 6.151,14.692 10.334,6.425 15.327,16.426 15.019,28.751 -0.148,5.931 -3.164,9.773 -7.488,9.775 -60.179,0.019 -120.358,0.028 -180.538,-0.01 -7.945,-0.005 -11.321,-3.388 -11.323,-11.222 -0.022,-90.88 -0.022,-181.76 0,-272.641 0.002,-8.329 3.127,-11.448 11.467,-11.529 9.001,-0.087 18.048,0.523 26.993,-0.19 9.91,-0.79 18.275,2.388 26.244,7.598 1.673,1.094 3.383,2.141 4.991,3.324 12.473,9.177 21.281,20.411 21.788,36.827 0.083,2.706 2.252,5.732 4.222,7.921 5.559,6.176 12.076,11.552 17.2,18.045 10.456,13.251 14.971,28.282 9.656,44.947 -1.331,4.173 -0.533,5.67 3.109,7.527 13.944,7.111 17.327,14.04 14.666,27.303 8.295,7.429 16.758,13.976 23.951,21.704 9.928,10.666 8.416,25.705 -2.373,35.664 -2.234,2.063 -3.933,4.706 -5.34,6.425 5.916,5.229 12.018,9.3 16.274,14.8 3.431,4.434 7.093,6.552 12.106,6.16 6.437,-0.505 12.808,-1.821 19.223,-2.668 1.526,-0.201 3.83,-0.566 4.546,0.239 2.742,3.081 4.982,6.609 8.099,10.923 -13.844,-1.564 -26.119,-2.95 -38.643,-4.365 m -179.495,54.548 h 297 v -298 h -297 z"/>
        </g>
        <g transform="translate(322.2034,767.0764)" id="g22">
          <path id="path24" style="fill:#e7235e;fill-opacity:1;fill-rule:nonzero;stroke:none" d="M 0,0 C 12.524,1.415 24.799,2.801 38.642,4.365 35.526,0.05 33.286,-3.477 30.544,-6.558 29.828,-7.363 27.524,-6.998 25.998,-6.797 19.583,-5.95 13.212,-4.634 6.775,-4.13 1.762,-3.737 -1.9,-5.855 -5.331,-10.289 c -4.256,-5.5 -10.358,-9.571 -16.274,-14.8 1.407,-1.719 3.105,-4.362 5.34,-6.425 10.789,-9.959 12.301,-24.999 2.373,-35.664 -7.193,-7.728 -15.657,-14.275 -23.951,-21.704 2.66,-13.263 -0.722,-20.192 -14.666,-27.303 -3.642,-1.858 -4.44,-3.354 -3.109,-7.527 5.315,-16.665 0.8,-31.696 -9.656,-44.947 -5.124,-6.493 -11.641,-11.869 -17.2,-18.045 -1.97,-2.189 -4.139,-5.215 -4.222,-7.921 -0.507,-16.416 -9.315,-27.65 -21.788,-36.827 -1.609,-1.183 -3.318,-2.23 -4.991,-3.324 -7.969,-5.21 -16.334,-8.389 -26.244,-7.598 -8.945,0.713 -17.992,0.103 -26.993,0.19 -8.34,0.081 -11.465,3.2 -11.467,11.529 -0.022,90.881 -0.022,181.761 0,272.641 0.002,7.834 3.378,11.217 11.323,11.222 60.18,0.038 120.359,0.029 180.538,0.009 4.324,-10e-4 7.339,-3.843 7.488,-9.774 C 21.478,31.118 16.485,21.117 6.151,14.692 0.209,10.998 -0.514,6.396 0,0"/>
        </g>
        <g transform="translate(288.7388,526.8007)" id="g26">
          <path id="path28" style="fill:#e7235e;fill-opacity:1;fill-rule:nonzero;stroke:none" d="m 0,0 c 2.253,9.316 4.164,18.731 6.834,27.925 4.876,16.791 10.303,33.421 15.157,50.217 0.413,1.43 -1.296,4.192 -2.786,5.328 -5.915,4.507 -12.135,8.613 -18.242,12.868 0.152,0.385 0.304,0.769 0.456,1.154 2.812,-0.406 5.612,-0.975 8.438,-1.19 13.085,-0.992 26.17,-2.048 39.275,-2.613 1.683,-0.073 4.445,2.245 5.08,4.034 5.617,15.817 10.608,31.861 16.428,47.599 1.257,3.399 4.888,6.085 7.808,8.667 4.982,4.404 10.314,8.411 15.408,12.692 3.027,2.544 3.553,4.945 0.229,8.173 -8.288,8.048 -13.61,18.248 -17.237,28.928 -1.449,4.268 0.644,10.025 1.958,14.879 1.953,7.216 3.846,14.643 7.225,21.232 4.298,8.382 4.133,16.425 1.661,24.983 -2.669,9.241 -5.165,18.532 -7.842,28.181 0.972,0.14 2.042,0.425 3.112,0.428 11.121,0.03 22.246,0.184 33.358,-0.126 2.362,-0.065 5.604,-1.202 6.865,-2.969 9.886,-13.869 14.774,-29.299 12.701,-46.465 -0.326,-2.704 -1.603,-5.378 -2.84,-7.867 -1.653,-3.327 -1.675,-5.38 2.49,-6.761 11.078,-3.673 14.512,-8.682 14.513,-20.189 0.001,-23.17 -0.273,-46.345 0.107,-69.509 0.218,-13.287 -4.074,-24.817 -11.442,-35.441 -1.796,-2.589 -2.103,-3.935 0.37,-6.591 7.28,-7.821 11.834,-16.465 11.239,-28.15 -1.008,-19.786 -0.26,-39.659 -0.32,-59.495 -0.027,-9.09 -2.816,-11.819 -12.02,-11.841 C 115.321,-1.973 92.635,-1.388 70.004,-2.247 59.261,-2.655 50.923,1.216 44.191,8.228 36.289,16.46 29.693,25.941 22.429,34.797 20.744,36.851 18.651,38.569 16.746,40.442 14.752,37.936 11.855,35.723 10.93,32.871 7.857,23.396 5.501,13.689 2.85,4.076 2.431,2.558 1.905,1.069 1.429,-0.433 0.953,-0.289 0.476,-0.144 0,0"/>
        </g>
        <g transform="translate(417.8348,819.5039)" id="g30">
          <path id="path32" style="fill:#e7235e;fill-opacity:1;fill-rule:nonzero;stroke:none" d="m 0,0 c 0.42,0.355 0.531,0.531 0.658,0.545 17.54,1.839 20.224,-0.519 20.258,-17.851 0.027,-14.143 0.033,-28.286 0.026,-42.429 -0.001,-1.588 -0.154,-3.177 -0.259,-5.205 -2.916,2.002 -5.536,3.443 -7.661,5.417 -0.999,0.928 -1.743,3.056 -1.421,4.344 C 16.666,-34.956 9.951,-17.263 0,0"/>
        </g>
        <g transform="translate(344.2035,740.3889)" id="g34">
          <path id="path36" style="fill:#e7235e;fill-opacity:1;fill-rule:nonzero;stroke:none" d="M 0,0 H 8.942 C 5.16,-1.909 2.604,-3.199 -0.362,-4.696 0.993,-7.033 2.185,-9.09 3.415,-11.212 -8.251,-9.781 -19.724,-8.372 -30.548,-7.044 -20.569,-3.249 -9.903,0.807 1.013,4.958 0.7,3.424 0.422,2.064 0,0"/>
        </g>
        <g transform="translate(438.5523,639.1713)" id="g38">
          <path id="path40" style="fill:#e7235e;fill-opacity:1;fill-rule:nonzero;stroke:none" d="m 0,0 v -20.113 c -2.831,3.409 -5.047,6.077 -7.272,8.756 C -5.01,-7.824 -2.889,-4.512 0,0"/>
        </g>
        <g transform="translate(344.1203,427.6094)" id="g42">
          <path id="path44" style="fill:#ffffff;fill-opacity:1;fill-rule:nonzero;stroke:none" d="m 0,0 c -11.051,-4.234 -21.623,-8.284 -31.42,-12.037 10.663,-1.311 22.154,-2.723 33.833,-4.158 -1.353,2.311 -2.546,4.348 -3.862,6.596 3.114,1.493 5.591,2.68 8.979,4.305 -3.41,0.151 -5.781,0.257 -8.453,0.375 C -0.578,-3.082 -0.316,-1.685 0,0 m 79.079,74.112 c 11.585,-17.039 12.092,-35.467 6.879,-54.437 2.479,-1.525 4.528,-2.786 7.093,-4.364 0.205,2.004 0.446,3.272 0.448,4.541 0.016,14.647 0.069,29.294 -0.04,43.94 -0.065,8.875 -4.401,12.11 -14.38,10.32 M -56.398,-218.613 c 0.452,-0.077 0.905,-0.153 1.357,-0.23 0.451,1.379 0.963,2.741 1.345,4.139 2.717,9.933 5.143,19.959 8.283,29.756 0.851,2.658 3.837,4.632 5.843,6.92 1.796,-1.778 3.768,-3.413 5.358,-5.359 7.349,-8.992 14.043,-18.595 22.04,-26.958 6.727,-7.034 15.123,-10.781 25.849,-10.357 22.124,0.874 44.305,0.293 66.463,0.319 11.048,0.013 13.342,2.334 13.352,13.526 0.018,19.326 -0.67,38.685 0.288,57.964 0.569,11.457 -3.819,20.029 -11.016,27.712 -2.562,2.735 -2.479,4.117 -0.486,6.987 7.262,10.457 11.55,21.837 11.345,34.944 -0.363,23.151 -0.102,46.313 -0.103,69.47 -10e-4,11.915 -3.208,16.588 -14.694,20.545 -3.822,1.316 -4.012,3.253 -2.429,6.418 1.174,2.347 2.496,4.81 2.849,7.347 2.412,17.346 -2.543,32.919 -12.4,46.993 -1.317,1.881 -4.746,3.104 -7.246,3.191 -10.273,0.355 -20.565,0.169 -30.849,0.137 -1.239,-0.004 -2.476,-0.285 -3.997,-0.472 0.242,-1.547 0.322,-2.689 0.605,-3.778 C 29.323,55.336 33.594,40.142 37.094,24.772 37.927,21.112 36.965,16.55 35.462,12.977 33.554,8.442 29.96,4.649 27.626,0.253 c -2.971,-5.592 -6.453,-10.93 -4.565,-18.13 3.319,-12.657 7.679,-24.816 15.021,-35.667 2.557,-3.778 1.835,-5.952 -1.608,-8.04 -5.394,-3.27 -10.824,-6.48 -16.181,-9.809 -1.157,-0.719 -2.712,-1.673 -2.994,-2.793 -4.489,-17.803 -11.097,-34.76 -19.145,-51.257 -2.395,-4.91 -5.508,-6.408 -10.218,-5.567 -12.093,2.159 -24.153,4.508 -36.217,6.824 -3.266,0.627 -6.502,1.409 -9.751,2.119 -0.274,-0.443 -0.548,-0.887 -0.822,-1.33 5.622,-5.826 10.75,-12.272 17.032,-17.268 4.51,-3.587 5.191,-6.605 3.643,-11.763 -5.359,-17.857 -10.318,-35.835 -15.341,-53.791 -1.141,-4.08 -1.928,-8.26 -2.878,-12.394 m 33.46,240.285 c -0.892,6.729 0.515,11.161 6.249,14.801 10.107,6.416 15.039,16.234 14.837,28.345 -0.108,6.475 -3.12,10.051 -8.224,10.051 -59.828,0.007 -119.656,0.015 -179.483,-0.013 -8.236,-0.004 -11.597,-3.328 -11.598,-11.446 -0.019,-90.825 -0.019,-181.649 0.006,-272.474 0.003,-8.001 3.175,-11.195 11.187,-11.29 9.165,-0.109 18.372,0.492 27.486,-0.196 9.344,-0.706 17.339,2.026 24.918,6.939 2.095,1.359 4.262,2.621 6.266,4.103 12.449,9.209 21.188,20.499 21.597,36.904 0.064,2.56 2.13,5.447 4.007,7.514 5.696,6.272 12.389,11.726 17.539,18.39 10.768,13.935 15.251,29.506 8.806,46.832 -1.296,3.483 1.244,3.956 3.179,4.992 14.629,7.83 17.499,13.275 15.286,28.251 7.042,5.879 14.059,11.228 20.485,17.213 12.108,11.276 13.386,23.779 3.995,36.491 -2.608,3.531 -5.844,6.596 -9.156,10.278 2.668,1.653 4.767,2.657 6.508,4.094 3.696,3.053 8.107,5.762 10.568,9.658 3.285,5.2 7.577,6.917 12.949,6.452 6.267,-0.541 12.462,-1.89 18.709,-2.733 1.493,-0.201 3.746,-0.383 4.486,0.454 2.678,3.033 4.861,6.503 7.909,10.754 C 1.966,24.494 -10.321,23.102 -22.938,21.672 M 94.53,-221.781 h -297 c 0,99.333 0,198.666 0,298 99,0 198,0 297,0 0,-99.334 0,-198.667 0,-298"/>
        </g>
        <g transform="translate(321.1827,449.2818)" id="g46">
          <path id="path48" style="fill:#e7235e;fill-opacity:1;fill-rule:nonzero;stroke:none" d="m 0,0 c 12.616,1.429 24.903,2.822 38.511,4.363 -3.048,-4.25 -5.231,-7.721 -7.91,-10.754 -0.739,-0.837 -2.992,-0.655 -4.485,-0.453 -6.248,0.843 -12.442,2.191 -18.71,2.733 -5.371,0.464 -9.663,-1.253 -12.948,-6.453 -2.461,-3.896 -6.873,-6.605 -10.568,-9.657 -1.741,-1.438 -3.841,-2.441 -6.508,-4.094 3.311,-3.683 6.548,-6.748 9.156,-10.278 9.391,-12.713 8.112,-25.215 -3.995,-36.491 -6.426,-5.985 -13.444,-11.335 -20.485,-17.214 2.213,-14.976 -0.658,-20.42 -15.287,-28.25 -1.934,-1.036 -4.474,-1.509 -3.178,-4.993 6.444,-17.325 1.962,-32.897 -8.806,-46.831 -5.15,-6.665 -11.843,-12.118 -17.54,-18.39 -1.877,-2.067 -3.942,-4.954 -4.006,-7.514 -0.409,-16.405 -9.148,-27.695 -21.597,-36.904 -3.016,-2.231 -5.438,-3.638 -6.266,-4.103 -3.792,-2.127 -9.354,-4.652 -16.366,-5.998 -2.19,-0.421 -4.34,-0.6 -8.552,-0.942 -1.949,-0.158 -12.638,0.021 -27.486,0.197 -8.012,0.095 -11.185,3.289 -11.187,11.289 -0.025,90.825 -0.026,181.65 -0.007,272.475 0.002,8.118 3.362,11.441 11.598,11.445 59.828,0.029 119.656,0.021 179.483,0.014 5.105,-0.001 8.116,-3.576 8.224,-10.052 C 21.288,31.035 16.355,21.216 6.249,14.801 0.514,11.161 -0.892,6.729 0,0"/>
        </g>
        <g transform="translate(287.7225,208.9964)" id="g50">
          <path id="path52" style="fill:#e7235e;fill-opacity:1;fill-rule:nonzero;stroke:none" d="m 0,0 c 0.95,4.134 1.736,8.314 2.878,12.394 5.023,17.956 9.982,35.934 15.341,53.791 1.547,5.158 0.867,8.176 -3.643,11.763 -6.282,4.996 -11.41,11.442 -17.032,17.268 0.274,0.443 0.548,0.887 0.821,1.33 3.25,-0.71 6.486,-1.492 9.752,-2.119 12.064,-2.316 24.124,-4.665 36.216,-6.824 4.711,-0.841 7.823,0.657 10.219,5.567 8.048,16.497 14.655,33.454 19.144,51.256 0.283,1.121 1.838,2.075 2.995,2.794 5.356,3.329 10.787,6.539 16.18,9.809 3.444,2.087 4.166,4.262 1.609,8.04 -7.342,10.851 -11.702,23.01 -15.021,35.667 -1.888,7.2 1.594,12.538 4.564,18.13 2.335,4.396 5.929,8.189 7.836,12.724 1.503,3.573 2.466,8.135 1.633,11.795 -3.5,15.37 -7.771,30.564 -11.735,45.829 -0.283,1.089 -0.363,2.231 -0.605,3.778 1.521,0.187 2.758,0.468 3.997,0.472 10.284,0.032 20.576,0.218 30.848,-0.137 2.501,-0.087 5.93,-1.31 7.247,-3.191 9.857,-14.074 14.812,-29.647 12.4,-46.994 -0.353,-2.536 -1.675,-4.999 -2.849,-7.346 -1.583,-3.165 -1.393,-5.102 2.428,-6.418 11.487,-3.957 14.694,-8.63 14.694,-20.545 0.001,-23.157 -0.259,-46.319 0.104,-69.47 0.205,-13.107 -4.084,-24.487 -11.345,-34.944 -1.994,-2.87 -2.076,-4.252 0.486,-6.987 7.197,-7.683 11.584,-16.255 11.015,-27.712 C 149.22,50.441 149.908,31.082 149.89,11.756 149.88,0.564 147.586,-1.757 136.538,-1.77 114.38,-1.796 92.198,-1.215 70.074,-2.089 59.349,-2.513 50.952,1.234 44.226,8.268 c -7.997,8.363 -14.691,17.966 -22.04,26.958 -1.59,1.946 -3.562,3.581 -5.358,5.359 -2.007,-2.288 -4.992,-4.262 -5.844,-6.92 C 7.844,23.868 5.419,13.842 2.702,3.909 2.319,2.511 1.808,1.149 1.357,-0.23 0.904,-0.153 0.452,-0.077 0,0"/>
        </g>
        <g transform="translate(423.1992,501.7212)" id="g54">
          <path id="path56" style="fill:#e7235e;fill-opacity:1;fill-rule:nonzero;stroke:none" d="m 0,0 c 9.979,1.79 14.315,-1.445 14.38,-10.32 0.109,-14.646 0.056,-29.293 0.04,-43.94 -0.002,-1.269 -0.243,-2.537 -0.448,-4.541 -2.565,1.578 -4.614,2.839 -7.092,4.364 C 12.092,-35.467 11.585,-17.039 0,0"/>
        </g>
        <g transform="translate(344.1203,427.6094)" id="g58">
          <path id="path60" style="fill:#e7235e;fill-opacity:1;fill-rule:nonzero;stroke:none" d="M 0,0 C -0.316,-1.685 -0.578,-3.082 -0.923,-4.919 1.749,-5.037 4.12,-5.143 7.53,-5.294 4.142,-6.919 1.665,-8.106 -1.449,-9.599 c 1.316,-2.248 2.509,-4.285 3.862,-6.596 -11.679,1.435 -23.17,2.847 -33.833,4.158 C -21.623,-8.284 -11.051,-4.234 0,0"/>
        </g>
        <g transform="translate(455.177,229.306)" id="g62">
          <path id="path64" style="fill:#e7235e;fill-opacity:1;fill-rule:nonzero;stroke:none" d="M 0,0 C -7.041,3.975 -5.641,17.957 -2.867,18.796 0.44,19.797 10.306,3.503 7.009,-0.319 5.62,-1.928 2.044,-1.154 0,0"/>
        </g>
      </g>
    </g>
  </g>
</svg>